<svg width="30" height="30" viewBox="0 0 30 30" fill="none" xmlns="http://www.w3.org/2000/svg">
<path d="M5.51755 2.49512L1.25485 2.51709L1.26706 5.01709L3.85495 5.00488L7.9736 14.8853L6.47702 17.2803C5.97702 18.0803 5.95116 19.0908 6.40866 19.9146C6.86616 20.7383 7.73423 21.25 8.67673 21.25H23.75V18.75H8.67673L8.59616 18.6035L10.0659 16.25H19.4018C20.3106 16.25 21.1469 15.7559 21.5869 14.9634L26.0913 6.85791C26.3075 6.47041 26.3016 5.99774 26.0766 5.61524C25.8516 5.23399 25.44 5 24.9975 5H6.56247L5.51755 2.49512ZM7.60251 7.5H22.8735L19.4018 13.75H10.2075L7.60251 7.5ZM8.74997 22.5C8.08693 22.5 7.45104 22.7634 6.9822 23.2322C6.51336 23.7011 6.24997 24.337 6.24997 25C6.24997 25.663 6.51336 26.2989 6.9822 26.7678C7.45104 27.2366 8.08693 27.5 8.74997 27.5C9.41301 27.5 10.0489 27.2366 10.5177 26.7678C10.9866 26.2989 11.25 25.663 11.25 25C11.25 24.337 10.9866 23.7011 10.5177 23.2322C10.0489 22.7634 9.41301 22.5 8.74997 22.5ZM21.25 22.5C20.5869 22.5 19.951 22.7634 19.4822 23.2322C19.0134 23.7011 18.75 24.337 18.75 25C18.75 25.663 19.0134 26.2989 19.4822 26.7678C19.951 27.2366 20.5869 27.5 21.25 27.5C21.913 27.5 22.5489 27.2366 23.0177 26.7678C23.4866 26.2989 23.75 25.663 23.75 25C23.75 24.337 23.4866 23.7011 23.0177 23.2322C22.5489 22.7634 21.913 22.5 21.25 22.5Z" fill="black"/>
</svg>
