<svg width="60" height="60" viewBox="0 0 60 60" fill="none" xmlns="http://www.w3.org/2000/svg">
<path d="M18.75 20.0273V39H14.4258L11.8594 30.375V39H7.73438V20.0273H11.8594L14.625 28.5703V20.0273H18.75ZM25.6758 20.0273V39H20.7422V20.0273H25.6758ZM39.4102 20.0273L36.5859 28.5938L39.6797 39H34.582L32.5898 30.8672V39H27.6562V20.0273H32.5898V27.3984L34.7812 20.0273H39.4102ZM51.8203 31.1367C51.8203 33.043 51.7734 34.3945 51.6797 35.1914C51.5938 35.9805 51.3125 36.7031 50.8359 37.3594C50.3672 38.0156 49.7305 38.5195 48.9258 38.8711C48.1211 39.2227 47.1836 39.3984 46.1133 39.3984C45.0977 39.3984 44.1836 39.2344 43.3711 38.9062C42.5664 38.5703 41.918 38.0703 41.4258 37.4062C40.9336 36.7422 40.6406 36.0195 40.5469 35.2383C40.4531 34.457 40.4062 33.0898 40.4062 31.1367V27.8906C40.4062 25.9844 40.4492 24.6367 40.5352 23.8477C40.6289 23.0508 40.9102 22.3242 41.3789 21.668C41.8555 21.0117 42.4961 20.5078 43.3008 20.1562C44.1055 19.8047 45.043 19.6289 46.1133 19.6289C47.1289 19.6289 48.0391 19.7969 48.8438 20.1328C49.6562 20.4609 50.3086 20.957 50.8008 21.6211C51.293 22.2852 51.5859 23.0078 51.6797 23.7891C51.7734 24.5703 51.8203 25.9375 51.8203 27.8906V31.1367ZM46.8867 24.9023C46.8867 24.0195 46.8359 23.457 46.7344 23.2148C46.6406 22.9648 46.4414 22.8398 46.1367 22.8398C45.8789 22.8398 45.6797 22.9414 45.5391 23.1445C45.4062 23.3398 45.3398 23.9258 45.3398 24.9023V33.7617C45.3398 34.8633 45.3828 35.543 45.4688 35.8008C45.5625 36.0586 45.7734 36.1875 46.1016 36.1875C46.4375 36.1875 46.6523 36.0391 46.7461 35.7422C46.8398 35.4453 46.8867 34.7383 46.8867 33.6211V24.9023Z" fill="#111111"/>
</svg>
