<svg width="48" height="17" viewBox="0 0 48 17" fill="none" xmlns="http://www.w3.org/2000/svg">
<path d="M0.0140001 1.672H3.822C4.366 1.672 4.88867 1.72533 5.39 1.832C5.902 1.93867 6.35 2.12 6.734 2.376C7.118 2.62133 7.422 2.95733 7.646 3.384C7.88067 3.8 7.998 4.32267 7.998 4.952C7.998 5.66667 7.87533 6.24267 7.63 6.68C7.38467 7.11733 7.054 7.45867 6.638 7.704C6.222 7.93867 5.73667 8.09867 5.182 8.184C4.638 8.26933 4.06733 8.312 3.47 8.312H2.03V13H0.0140001V1.672ZM3.246 6.584C3.534 6.584 3.83267 6.57333 4.142 6.552C4.45133 6.53067 4.734 6.46667 4.99 6.36C5.25667 6.25333 5.47 6.09333 5.63 5.88C5.80067 5.66667 5.886 5.368 5.886 4.984C5.886 4.632 5.81133 4.35467 5.662 4.152C5.51267 3.93867 5.32067 3.77867 5.086 3.672C4.85133 3.55467 4.59 3.48 4.302 3.448C4.014 3.416 3.73667 3.4 3.47 3.4H2.03V6.584H3.246ZM14.4193 11.944H14.3713C14.0939 12.3813 13.7419 12.7013 13.3153 12.904C12.8886 13.096 12.4193 13.192 11.9073 13.192C11.5553 13.192 11.2086 13.144 10.8673 13.048C10.5366 12.952 10.2379 12.808 9.97125 12.616C9.71525 12.424 9.50725 12.184 9.34725 11.896C9.18725 11.608 9.10725 11.272 9.10725 10.888C9.10725 10.472 9.18192 10.12 9.33125 9.832C9.48058 9.53333 9.67792 9.288 9.92325 9.096C10.1793 8.89333 10.4726 8.73333 10.8033 8.616C11.1339 8.49867 11.4753 8.41333 11.8273 8.36C12.1899 8.296 12.5526 8.25867 12.9153 8.248C13.2779 8.22667 13.6193 8.216 13.9393 8.216H14.4193V8.008C14.4193 7.528 14.2539 7.17067 13.9233 6.936C13.5926 6.69067 13.1713 6.568 12.6593 6.568C12.2539 6.568 11.8753 6.64267 11.5233 6.792C11.1713 6.93067 10.8673 7.12267 10.6113 7.368L9.60325 6.36C10.0299 5.92267 10.5259 5.608 11.0913 5.416C11.6673 5.224 12.2593 5.128 12.8673 5.128C13.4113 5.128 13.8699 5.192 14.2433 5.32C14.6166 5.43733 14.9259 5.592 15.1713 5.784C15.4166 5.976 15.6033 6.2 15.7313 6.456C15.8699 6.70133 15.9659 6.952 16.0193 7.208C16.0833 7.464 16.1206 7.71467 16.1313 7.96C16.1419 8.19467 16.1473 8.40267 16.1473 8.584V13H14.4193V11.944ZM14.3073 9.56H13.9073C13.6406 9.56 13.3419 9.57067 13.0113 9.592C12.6806 9.61333 12.3659 9.66667 12.0673 9.752C11.7793 9.82667 11.5339 9.944 11.3313 10.104C11.1286 10.2533 11.0273 10.4667 11.0273 10.744C11.0273 10.9253 11.0646 11.08 11.1393 11.208C11.2246 11.3253 11.3313 11.4267 11.4593 11.512C11.5873 11.5973 11.7313 11.6613 11.8913 11.704C12.0513 11.736 12.2113 11.752 12.3713 11.752C13.0326 11.752 13.5179 11.5973 13.8273 11.288C14.1473 10.968 14.3073 10.536 14.3073 9.992V9.56ZM17.173 5.32H19.285L21.429 10.648H21.461L23.381 5.32H25.381L21.749 14.648C21.6103 15.0107 21.4557 15.3253 21.285 15.592C21.125 15.8693 20.933 16.0987 20.709 16.28C20.485 16.472 20.2183 16.6107 19.909 16.696C19.6103 16.792 19.2477 16.84 18.821 16.84C18.3197 16.84 17.829 16.776 17.349 16.648L17.589 14.92C17.7383 14.9733 17.893 15.016 18.053 15.048C18.2237 15.0907 18.3943 15.112 18.565 15.112C18.7997 15.112 18.997 15.0907 19.157 15.048C19.317 15.0053 19.4503 14.936 19.557 14.84C19.6743 14.7547 19.7703 14.6373 19.845 14.488C19.9197 14.3493 19.9997 14.1787 20.085 13.976L20.453 13.064L17.173 5.32Z" fill="#21468C"/>
<path d="M26.5099 5.32H28.3339V6.472H28.3659C28.6432 6.00267 29.0165 5.66133 29.4859 5.448C29.9552 5.23467 30.4619 5.128 31.0059 5.128C31.5925 5.128 32.1205 5.23467 32.5899 5.448C33.0592 5.65067 33.4592 5.93333 33.7899 6.296C34.1205 6.65867 34.3712 7.08533 34.5419 7.576C34.7125 8.06667 34.7979 8.59467 34.7979 9.16C34.7979 9.72533 34.7072 10.2533 34.5259 10.744C34.3445 11.2347 34.0885 11.6613 33.7579 12.024C33.4379 12.3867 33.0485 12.6747 32.5899 12.888C32.1312 13.0907 31.6299 13.192 31.0859 13.192C30.7232 13.192 30.4032 13.1547 30.1259 13.08C29.8485 13.0053 29.6032 12.9093 29.3899 12.792C29.1765 12.6747 28.9952 12.552 28.8459 12.424C28.6965 12.2853 28.5739 12.152 28.4779 12.024H28.4299V16.648H26.5099V5.32ZM32.8779 9.16C32.8779 8.86133 32.8245 8.57333 32.7179 8.296C32.6219 8.01867 32.4725 7.77333 32.2699 7.56C32.0779 7.34667 31.8432 7.176 31.5659 7.048C31.2885 6.92 30.9739 6.856 30.6219 6.856C30.2699 6.856 29.9552 6.92 29.6779 7.048C29.4005 7.176 29.1605 7.34667 28.9579 7.56C28.7659 7.77333 28.6165 8.01867 28.5099 8.296C28.4139 8.57333 28.3659 8.86133 28.3659 9.16C28.3659 9.45867 28.4139 9.74667 28.5099 10.024C28.6165 10.3013 28.7659 10.5467 28.9579 10.76C29.1605 10.9733 29.4005 11.144 29.6779 11.272C29.9552 11.4 30.2699 11.464 30.6219 11.464C30.9739 11.464 31.2885 11.4 31.5659 11.272C31.8432 11.144 32.0779 10.9733 32.2699 10.76C32.4725 10.5467 32.6219 10.3013 32.7179 10.024C32.8245 9.74667 32.8779 9.45867 32.8779 9.16ZM41.388 11.944H41.34C41.0627 12.3813 40.7107 12.7013 40.284 12.904C39.8573 13.096 39.388 13.192 38.876 13.192C38.524 13.192 38.1773 13.144 37.836 13.048C37.5053 12.952 37.2067 12.808 36.94 12.616C36.684 12.424 36.476 12.184 36.316 11.896C36.156 11.608 36.076 11.272 36.076 10.888C36.076 10.472 36.1507 10.12 36.3 9.832C36.4493 9.53333 36.6467 9.288 36.892 9.096C37.148 8.89333 37.4413 8.73333 37.772 8.616C38.1027 8.49867 38.444 8.41333 38.796 8.36C39.1587 8.296 39.5213 8.25867 39.884 8.248C40.2467 8.22667 40.588 8.216 40.908 8.216H41.388V8.008C41.388 7.528 41.2227 7.17067 40.892 6.936C40.5613 6.69067 40.14 6.568 39.628 6.568C39.2227 6.568 38.844 6.64267 38.492 6.792C38.14 6.93067 37.836 7.12267 37.58 7.368L36.572 6.36C36.9987 5.92267 37.4947 5.608 38.06 5.416C38.636 5.224 39.228 5.128 39.836 5.128C40.38 5.128 40.8387 5.192 41.212 5.32C41.5853 5.43733 41.8947 5.592 42.14 5.784C42.3853 5.976 42.572 6.2 42.7 6.456C42.8387 6.70133 42.9347 6.952 42.988 7.208C43.052 7.464 43.0893 7.71467 43.1 7.96C43.1107 8.19467 43.116 8.40267 43.116 8.584V13H41.388V11.944ZM41.276 9.56H40.876C40.6093 9.56 40.3107 9.57067 39.98 9.592C39.6493 9.61333 39.3347 9.66667 39.036 9.752C38.748 9.82667 38.5027 9.944 38.3 10.104C38.0973 10.2533 37.996 10.4667 37.996 10.744C37.996 10.9253 38.0333 11.08 38.108 11.208C38.1933 11.3253 38.3 11.4267 38.428 11.512C38.556 11.5973 38.7 11.6613 38.86 11.704C39.02 11.736 39.18 11.752 39.34 11.752C40.0013 11.752 40.4867 11.5973 40.796 11.288C41.116 10.968 41.276 10.536 41.276 9.992V9.56ZM45.2138 0.903999H47.1338V13H45.2138V0.903999Z" fill="#019DE1"/>
</svg>
